<svg xmlns="http://www.w3.org/2000/svg" viewBox="0 0 128 128">
  <defs>
    <linearGradient id="bgGrad" x1="0%" y1="0%" x2="100%" y2="100%">
      <stop offset="0%" style="stop-color:#c04851"/>
      <stop offset="100%" style="stop-color:#a03840"/>
    </linearGradient>
    <linearGradient id="textGrad" x1="0%" y1="0%" x2="0%" y2="100%">
      <stop offset="0%" style="stop-color:#ffffff"/>
      <stop offset="100%" style="stop-color:#f5f0e8"/>
    </linearGradient>
  </defs>

  <!-- 背景圆角矩形 -->
  <rect x="4" y="4" width="120" height="120" rx="24" ry="24" fill="url(#bgGrad)"/>

  <!-- 装饰边框 -->
  <rect x="12" y="12" width="104" height="104" rx="18" ry="18" fill="none" stroke="#f5f0e8" stroke-width="1.5" opacity="0.3"/>

  <!-- J 字母 -->
  <path d="M20 36 L20 42 L30 42 L30 72 Q30 84 20 84 L16 84 L16 92 L22 92 Q42 92 42 72 L42 36 Z" fill="url(#textGrad)"/>

  <!-- B 字母 -->
  <path d="M48 36 L48 92 L68 92 Q82 92 82 80 Q82 70 72 66 Q80 62 80 54 Q80 36 66 36 Z M60 46 L66 46 Q70 46 70 54 Q70 58 66 58 L60 58 Z M60 68 L68 68 Q72 68 72 76 Q72 82 68 82 L60 82 Z" fill="url(#textGrad)"/>

  <!-- E 字母 -->
  <path d="M88 36 L88 92 L112 92 L112 82 L100 82 L100 68 L110 68 L110 58 L100 58 L100 46 L112 46 L112 36 Z" fill="url(#textGrad)"/>

  <!-- 底部装饰线 -->
  <line x1="20" y1="98" x2="108" y2="98" stroke="#f5f0e8" stroke-width="2" stroke-linecap="round" opacity="0.5"/>
</svg>